<?xml version="1.0" standalone="no"?>
<!DOCTYPE svg PUBLIC "-//W3C//DTD SVG 20010904//EN"
 "http://www.w3.org/TR/2001/REC-SVG-20010904/DTD/svg10.dtd">
<svg version="1.0" xmlns="http://www.w3.org/2000/svg"
 width="260.000000pt" height="260.000000pt" viewBox="0 0 260.000000 260.000000"
 preserveAspectRatio="xMidYMid meet">
<metadata>
Created by potrace 1.14, written by Peter Selinger 2001-2017
</metadata>
<g transform="translate(0.000000,260.000000) scale(0.100000,-0.100000)"
fill="#000000" stroke="none">
<path d="M1185 1923 c-138 -30 -280 -94 -475 -212 -136 -83 -251 -147 -289
-162 -77 -29 -198 -47 -311 -47 -69 0 -105 -4 -104 -11 1 -6 2 -16 3 -21 2
-15 206 -267 272 -335 32 -33 71 -68 86 -77 28 -16 29 -16 47 11 11 16 40 42
65 59 155 105 366 40 430 -132 11 -31 21 -66 21 -78 0 -20 3 -21 96 -14 53 3
99 8 103 10 3 2 23 7 45 10 48 8 56 13 56 34 0 28 51 115 84 145 62 56 104 71
196 71 70 1 93 -3 128 -22 l42 -23 43 30 c24 16 67 52 97 81 127 118 159 133
408 181 324 62 353 73 367 140 10 47 -2 53 -51 24 -71 -42 -168 -74 -267 -89
-259 -41 -306 -41 -409 -5 -46 16 -117 36 -158 44 -92 17 -273 13 -350 -8 -77
-22 -262 -86 -335 -117 -11 -5 -78 -30 -150 -56 -121 -45 -137 -48 -230 -48
-61 -1 -115 4 -139 13 -51 18 -34 27 65 34 118 9 228 40 369 104 175 80 342
146 413 164 176 45 386 27 529 -46 54 -27 68 -31 68 -18 0 20 -58 99 -107 144
-161 149 -329 220 -528 224 -60 2 -119 1 -130 -2z"/>
<path d="M568 1100 c-112 -34 -178 -186 -129 -296 82 -182 341 -174 411 12 27
70 6 170 -48 228 -54 57 -153 81 -234 56z"/>
<path d="M1415 1089 c-56 -29 -81 -55 -104 -105 -49 -104 -4 -236 98 -288 18
-10 57 -20 87 -23 45 -5 62 -1 109 21 172 85 164 329 -12 403 -49 20 -132 17
-178 -8z"/>
</g>
</svg>
